<mxfile host="app.diagrams.net" agent="Mozilla/5.0 (Windows NT 10.0; Win64; x64) AppleWebKit/537.36 (KHTML, like Gecko) Chrome/133.0.0.0 Safari/537.36" version="26.0.16">
  <diagram name="第 1 页" id="YFcShXYamrY7Mfy_OZak">
    <mxGraphModel dx="893" dy="463" grid="1" gridSize="10" guides="1" tooltips="1" connect="1" arrows="1" fold="1" page="1" pageScale="1" pageWidth="827" pageHeight="1169" math="0" shadow="0">
      <root>
        <mxCell id="0" />
        <mxCell id="1" parent="0" />
        <mxCell id="T80_i37PEqfFpDS44voT-31" style="edgeStyle=orthogonalEdgeStyle;rounded=0;orthogonalLoop=1;jettySize=auto;html=1;entryX=0;entryY=0.5;entryDx=0;entryDy=0;" edge="1" parent="1" source="T80_i37PEqfFpDS44voT-28" target="T80_i37PEqfFpDS44voT-30">
          <mxGeometry relative="1" as="geometry" />
        </mxCell>
        <mxCell id="T80_i37PEqfFpDS44voT-28" value="" style="rounded=1;whiteSpace=wrap;html=1;dashed=1;" vertex="1" parent="1">
          <mxGeometry x="120" y="420" width="110" height="50" as="geometry" />
        </mxCell>
        <mxCell id="T80_i37PEqfFpDS44voT-26" value="目标语言标题" style="text;html=1;align=center;verticalAlign=middle;whiteSpace=wrap;rounded=0;" vertex="1" parent="1">
          <mxGeometry x="125" y="390" width="75" height="20" as="geometry" />
        </mxCell>
        <mxCell id="T80_i37PEqfFpDS44voT-27" value="两个男孩在打乒乓球" style="text;html=1;align=center;verticalAlign=middle;whiteSpace=wrap;rounded=0;strokeColor=none;dashed=1;" vertex="1" parent="1">
          <mxGeometry x="125" y="430" width="100" height="30" as="geometry" />
        </mxCell>
        <mxCell id="T80_i37PEqfFpDS44voT-33" style="edgeStyle=orthogonalEdgeStyle;rounded=0;orthogonalLoop=1;jettySize=auto;html=1;entryX=0.5;entryY=0;entryDx=0;entryDy=0;" edge="1" parent="1" source="T80_i37PEqfFpDS44voT-30" target="T80_i37PEqfFpDS44voT-32">
          <mxGeometry relative="1" as="geometry" />
        </mxCell>
        <mxCell id="T80_i37PEqfFpDS44voT-30" value="预训练&lt;div&gt;文本编码器&lt;/div&gt;" style="rounded=1;whiteSpace=wrap;html=1;fillColor=#dae8fc;strokeColor=#6c8ebf;" vertex="1" parent="1">
          <mxGeometry x="278" y="415" width="120" height="60" as="geometry" />
        </mxCell>
        <mxCell id="T80_i37PEqfFpDS44voT-34" style="edgeStyle=orthogonalEdgeStyle;rounded=0;orthogonalLoop=1;jettySize=auto;html=1;" edge="1" parent="1" source="T80_i37PEqfFpDS44voT-32">
          <mxGeometry relative="1" as="geometry">
            <mxPoint x="540" y="445" as="targetPoint" />
          </mxGeometry>
        </mxCell>
        <mxCell id="T80_i37PEqfFpDS44voT-32" value="Adapter" style="rounded=1;whiteSpace=wrap;html=1;fillColor=#f8cecc;strokeColor=#b85450;rotation=-90;" vertex="1" parent="1">
          <mxGeometry x="416" y="437.5" width="56" height="15" as="geometry" />
        </mxCell>
        <mxCell id="T80_i37PEqfFpDS44voT-46" style="edgeStyle=orthogonalEdgeStyle;rounded=0;orthogonalLoop=1;jettySize=auto;html=1;entryX=0;entryY=0.5;entryDx=0;entryDy=0;" edge="1" parent="1" source="T80_i37PEqfFpDS44voT-35" target="T80_i37PEqfFpDS44voT-40">
          <mxGeometry relative="1" as="geometry" />
        </mxCell>
        <mxCell id="T80_i37PEqfFpDS44voT-35" value="" style="rounded=1;whiteSpace=wrap;html=1;dashed=1;" vertex="1" parent="1">
          <mxGeometry x="120" y="534.5" width="110" height="50" as="geometry" />
        </mxCell>
        <mxCell id="T80_i37PEqfFpDS44voT-36" value="目标语言标题" style="text;html=1;align=center;verticalAlign=middle;whiteSpace=wrap;rounded=0;" vertex="1" parent="1">
          <mxGeometry x="120" y="504.5" width="75" height="20" as="geometry" />
        </mxCell>
        <mxCell id="T80_i37PEqfFpDS44voT-37" value="两个男孩在打乒乓球" style="text;html=1;align=center;verticalAlign=middle;whiteSpace=wrap;rounded=0;strokeColor=none;dashed=1;" vertex="1" parent="1">
          <mxGeometry x="125" y="544.5" width="100" height="30" as="geometry" />
        </mxCell>
        <mxCell id="T80_i37PEqfFpDS44voT-39" style="edgeStyle=orthogonalEdgeStyle;rounded=0;orthogonalLoop=1;jettySize=auto;html=1;entryX=0.5;entryY=0;entryDx=0;entryDy=0;" edge="1" parent="1" source="T80_i37PEqfFpDS44voT-40" target="T80_i37PEqfFpDS44voT-42">
          <mxGeometry relative="1" as="geometry" />
        </mxCell>
        <mxCell id="T80_i37PEqfFpDS44voT-47" style="edgeStyle=orthogonalEdgeStyle;rounded=0;orthogonalLoop=1;jettySize=auto;html=1;entryX=0.5;entryY=0;entryDx=0;entryDy=0;" edge="1" parent="1" source="T80_i37PEqfFpDS44voT-40" target="T80_i37PEqfFpDS44voT-55">
          <mxGeometry relative="1" as="geometry">
            <mxPoint x="290" y="620" as="targetPoint" />
          </mxGeometry>
        </mxCell>
        <mxCell id="T80_i37PEqfFpDS44voT-40" value="预训练&lt;div&gt;文本编码器&lt;/div&gt;" style="rounded=1;whiteSpace=wrap;html=1;fillColor=#dae8fc;strokeColor=#6c8ebf;" vertex="1" parent="1">
          <mxGeometry x="280" y="530" width="120" height="60" as="geometry" />
        </mxCell>
        <mxCell id="T80_i37PEqfFpDS44voT-73" style="edgeStyle=orthogonalEdgeStyle;rounded=0;orthogonalLoop=1;jettySize=auto;html=1;" edge="1" parent="1" source="T80_i37PEqfFpDS44voT-42">
          <mxGeometry relative="1" as="geometry">
            <mxPoint x="540" y="560.005" as="targetPoint" />
          </mxGeometry>
        </mxCell>
        <mxCell id="T80_i37PEqfFpDS44voT-42" value="Adapters" style="rounded=1;whiteSpace=wrap;html=1;fillColor=#f8cecc;strokeColor=#b85450;rotation=-90;" vertex="1" parent="1">
          <mxGeometry x="460" y="533.13" width="56" height="53.75" as="geometry" />
        </mxCell>
        <mxCell id="T80_i37PEqfFpDS44voT-63" style="edgeStyle=orthogonalEdgeStyle;rounded=0;orthogonalLoop=1;jettySize=auto;html=1;entryX=0;entryY=0.5;entryDx=0;entryDy=0;" edge="1" parent="1" source="T80_i37PEqfFpDS44voT-53" target="T80_i37PEqfFpDS44voT-59">
          <mxGeometry relative="1" as="geometry" />
        </mxCell>
        <mxCell id="T80_i37PEqfFpDS44voT-64" style="edgeStyle=orthogonalEdgeStyle;rounded=0;orthogonalLoop=1;jettySize=auto;html=1;exitX=1;exitY=0.5;exitDx=0;exitDy=0;entryX=0;entryY=0.5;entryDx=0;entryDy=0;" edge="1" parent="1" source="T80_i37PEqfFpDS44voT-53" target="T80_i37PEqfFpDS44voT-58">
          <mxGeometry relative="1" as="geometry">
            <Array as="points">
              <mxPoint x="370" y="645" />
              <mxPoint x="370" y="670" />
            </Array>
          </mxGeometry>
        </mxCell>
        <mxCell id="T80_i37PEqfFpDS44voT-53" value="" style="rounded=1;whiteSpace=wrap;html=1;fillColor=#fff2cc;strokeColor=#d6b656;" vertex="1" parent="1">
          <mxGeometry x="230" y="630" width="120" height="30" as="geometry" />
        </mxCell>
        <mxCell id="T80_i37PEqfFpDS44voT-55" value="多尺度自适应" style="text;html=1;align=center;verticalAlign=middle;whiteSpace=wrap;rounded=0;" vertex="1" parent="1">
          <mxGeometry x="242.5" y="630" width="95" height="30" as="geometry" />
        </mxCell>
        <mxCell id="T80_i37PEqfFpDS44voT-72" style="edgeStyle=orthogonalEdgeStyle;rounded=0;orthogonalLoop=1;jettySize=auto;html=1;entryX=0;entryY=0.5;entryDx=0;entryDy=0;exitX=1;exitY=0.5;exitDx=0;exitDy=0;" edge="1" parent="1" source="T80_i37PEqfFpDS44voT-58" target="T80_i37PEqfFpDS44voT-42">
          <mxGeometry relative="1" as="geometry">
            <Array as="points">
              <mxPoint x="488" y="670" />
            </Array>
          </mxGeometry>
        </mxCell>
        <mxCell id="T80_i37PEqfFpDS44voT-58" value="&lt;font style=&quot;font-size: 10px;&quot;&gt;&#39;两&#39;,&#39;男&#39;,&#39;打&#39;&lt;/font&gt;" style="text;html=1;align=center;verticalAlign=middle;whiteSpace=wrap;rounded=0;strokeColor=#d6b656;dashed=1;fillColor=#fff2cc;" vertex="1" parent="1">
          <mxGeometry x="386" y="660" width="84" height="20" as="geometry" />
        </mxCell>
        <mxCell id="T80_i37PEqfFpDS44voT-71" style="edgeStyle=orthogonalEdgeStyle;rounded=0;orthogonalLoop=1;jettySize=auto;html=1;entryX=0;entryY=0.5;entryDx=0;entryDy=0;exitX=1;exitY=0.5;exitDx=0;exitDy=0;" edge="1" parent="1" source="T80_i37PEqfFpDS44voT-59" target="T80_i37PEqfFpDS44voT-42">
          <mxGeometry relative="1" as="geometry" />
        </mxCell>
        <mxCell id="T80_i37PEqfFpDS44voT-59" value="&lt;font style=&quot;font-size: 10px;&quot;&gt;&#39;两个男孩在打乒乓&#39;&lt;/font&gt;" style="text;html=1;align=center;verticalAlign=middle;whiteSpace=wrap;rounded=0;strokeColor=#d6b656;dashed=1;fillColor=#fff2cc;" vertex="1" parent="1">
          <mxGeometry x="386" y="610" width="86" height="20" as="geometry" />
        </mxCell>
        <mxCell id="T80_i37PEqfFpDS44voT-68" value="&lt;font style=&quot;font-size: 8px;&quot; face=&quot;Comic Sans MS&quot;&gt;token-level&lt;/font&gt;" style="text;html=1;align=center;verticalAlign=middle;whiteSpace=wrap;rounded=0;" vertex="1" parent="1">
          <mxGeometry x="381" y="648" width="50" height="10" as="geometry" />
        </mxCell>
        <mxCell id="T80_i37PEqfFpDS44voT-69" value="&lt;font style=&quot;font-size: 8px;&quot; face=&quot;Comic Sans MS&quot;&gt;sentence&lt;/font&gt;&lt;span style=&quot;color: rgba(0, 0, 0, 0); font-family: monospace; font-size: 0px; text-align: start; text-wrap-mode: nowrap;&quot;&gt;%3CmxGraphModel%3E%3Croot%3E%3CmxCell%20id%3D%220%22%2F%3E%3CmxCell%20id%3D%221%22%20parent%3D%220%22%2F%3E%3CmxCell%20id%3D%222%22%20value%3D%22%26lt%3Bfont%20style%3D%26quot%3Bfont-size%3A%208px%3B%26quot%3B%20face%3D%26quot%3BComic%20Sans%20MS%26quot%3B%26gt%3Btoken-level%26lt%3B%2Ffont%26gt%3B%22%20style%3D%22text%3Bhtml%3D1%3Balign%3Dcenter%3BverticalAlign%3Dmiddle%3BwhiteSpace%3Dwrap%3Brounded%3D0%3B%22%20vertex%3D%221%22%20parent%3D%221%22%3E%3CmxGeometry%20x%3D%22381%22%20y%3D%22648%22%20width%3D%2250%22%20height%3D%2210%22%20as%3D%22geometry%22%2F%3E%3C%2FmxCell%3E%3C%2Froot%3E%3C%2FmxGraphModel%3E&lt;/span&gt;&lt;font style=&quot;font-size: 8px;&quot; face=&quot;Comic Sans MS&quot;&gt;-level&lt;/font&gt;" style="text;html=1;align=center;verticalAlign=middle;whiteSpace=wrap;rounded=0;" vertex="1" parent="1">
          <mxGeometry x="381.5" y="600" width="59" height="10" as="geometry" />
        </mxCell>
      </root>
    </mxGraphModel>
  </diagram>
</mxfile>
